solid model
facet normal -0.94281734407516 2.68015765795558e-016 0.333309849406017
outer loop
vertex -44.4000000000002 78.0820323027553 -29.6
vertex -44.4000000000002 -77.8025403784437 -29.6
vertex 0.599999999999835 0.13974596215562 97.6893092088035
endloop
endfacet
facet normal 0.471408672037579 -0.816503771097663 0.333309849406017
outer loop
vertex 0.599999999999835 0.13974596215562 97.6893092088035
vertex -44.4000000000002 -77.8025403784437 -29.6
vertex 90.6 0.13974596215562 -29.6
endloop
endfacet
facet normal 0.47140867203758 0.816503771097662 0.333309849406018
outer loop
vertex 0.599999999999835 0.13974596215562 97.6893092088035
vertex 90.6 0.13974596215562 -29.6
vertex -44.4000000000002 78.0820323027553 -29.6
endloop
endfacet
facet normal 0.0 0.0 -1.0
outer loop
vertex 90.6 0.13974596215562 -29.6
vertex -44.4000000000002 -77.8025403784437 -29.6
vertex -44.4000000000002 78.0820323027553 -29.6
endloop
endfacet
endsolid model
